# xmcd
#
# Track frame offsets: 
#        182
#        12272
#        52425
#        66657
#        78360
#        92967
#        110575
#        130872
#        139697
#        154320
#        165947
#        178622
#        194830
#        206690
#
# Disc length: 2966 seconds
#
# Revision: 4
# Processed by: cddbd v1.5.2PL0 Copyright (c) Steve Scherf et al.
# Submitted via: ExactAudioCopyFreeDBPlugin 1.0
#
DISCID=d20b940e
DTITLE=Various Artist - Soul Ballads CD 1
DYEAR=1995
DGENRE=Soul
TTITLE0=Aretha Franklin - You make me feel (like a natural woman)
TTITLE1=James Brown - It's a man's, man's world
TTITLE2=Percy Sledge - Warm and tender love
TTITLE3=The Drifters - Bring it on home to me
TTITLE4=Sam and Dave - When something is wrong with ma baby
TTITLE5=Otis Redding - Good to me
TTITLE6=Etta James - Drown in my own tears
TTITLE7=Sam Cooke - Only sixteen
TTITLE8=The Isley Brothers - Right now
TTITLE9=Little Richard - Cherry Red
TTITLE10=Ike and Tina Turner - I better get steppin'
TTITLE11=Solomon Burke - The more
TTITLE12=Wilson Pickett - Down to my last heartbreak
TTITLE13=Fontella Bass - The soul of a man
EXTD=YEAR: 1995 ID3G:   0
EXTT0=
EXTT1=
EXTT2=
EXTT3=
EXTT4=
EXTT5=
EXTT6=
EXTT7=
EXTT8=
EXTT9=
EXTT10=
EXTT11=
EXTT12=
EXTT13=
PLAYORDER=
